<svg xmlns="http://www.w3.org/2000/svg" width="14" height="14" fill="none" viewBox="0 0 12 12"><path fill="#FFD635" d="M7.19 1.93c.067-.346.083-.79-.254-.948a.894.894 0 0 0-.3-.065c-1.792-.16-3.3.811-4.976 1.52a5.527 5.527 0 0 0-1.173.795c-.342.315-.126 2.046 0 3.292.085.842.138 2.198.297 3.032.055.279 5.57 1.872 10.379 2.357.695.07.777-.662.777-.662l-.35-.601"/><path fill="#AA4C16" d="M11.595 10.648c.057.06.107.125.15.195l.127.192.076.12.046.076c.015.026-.002.059-.003.088a.98.98 0 0 1-.132.348.7.7 0 0 1-.317.277.904.904 0 0 1-.453.05l-.442-.042c-1.206-.118-2.563-.336-3.319-.455a43.77 43.77 0 0 1-4.176-.851 20.94 20.94 0 0 1-2.119-.639C.988 9.99.945 9.973.9 9.951a1.154 1.154 0 0 1-.166-.085.29.29 0 0 1-.097-.072.344.344 0 0 1-.075-.096C.5 9.647.5 9.536.484 9.476a10.442 10.442 0 0 1-.08-.538A28.005 28.005 0 0 1 .3 7.888C.249 7.282.207 6.701.137 6.108.075 5.515.014 4.923 0 4.32c-.016-.32.013-.64.086-.952a.803.803 0 0 1 .053-.143.569.569 0 0 1 .102-.16.687.687 0 0 1 .105-.104l.09-.074c.12-.096.24-.185.361-.27.246-.178.51-.33.789-.454.255-.106.507-.214.757-.325.994-.444 1.982-.893 2.983-1.046.48-.074.967-.075 1.447-.003.137.02.264.08.365.172a.652.652 0 0 1 .18.34 1.54 1.54 0 0 1-.04.645c.01-.2-.016-.4-.074-.592a.471.471 0 0 0-.469-.34c-.477 0-.952.067-1.41.197a18.99 18.99 0 0 0-2.173.875c-.454.185-.903.377-1.355.552-.41.18-.791.414-1.135.697-.111.062-.146.29-.17.497-.02.216-.026.433-.02.65.008.437.042.87.078 1.298.087.853.134 1.693.197 2.491.034.397.074.801.138 1.164-.004.068.052.1.115.128.083.04.17.076.26.11.178.068.36.128.54.187 1.454.454 2.852.768 4.16 1.042 1.307.275 2.535.488 3.684.67l.932.147.512.08a.737.737 0 0 0 .447-.029.653.653 0 0 0 .288-.305c.029-.058.051-.119.068-.182.016-.03-.012-.053-.02-.08l-.04-.08-.236-.475Z"/><path fill="#fff" d="M4.36 1.589c-.022.052-.605.216-.814.324-.37.182-.8.37-1.168.57-.654.344-1.271.71-1.706.942.117-.249.301-.46.533-.613 1.12-.51 1.918-.97 2.627-1.155.173-.039.35-.062.527-.068Z"/><path fill="#EAD49D" d="M1.397 3.416a9.346 9.346 0 0 1 6.07-1.637.805.805 0 0 1 .297.064.756.756 0 0 1 .238.223c.993 1.243 2.307 2.504 3.3 3.746.152.172.277.365.371.573.061.177.098.361.111.548.18 1.621.004 2.67.073 4.3-.754.185-4.53-.511-6.78-1.058a85.097 85.097 0 0 1-3.67-.978c-.182-1.738-.366-3.476-.55-5.216l.54-.565Z"/><path fill="#9C6926" d="M1.401 3.42a1.4 1.4 0 0 1-.153.2L.916 4l.136 1.061.16 1.346.316 2.689 1.036.252 2.57.624c.88.195 1.784.374 2.692.536.907.163 1.825.312 2.727.411.226.024.45.044.67.055.107.002.223.01.318.004.007 0 .017 0 .02-.007V10.943l-.003-.07-.007-.338v-.667c.01-.771.036-1.523-.014-2.262a14.403 14.403 0 0 0-.047-.552 2.685 2.685 0 0 0-.08-.499 3.04 3.04 0 0 0-.568-.826C9.9 4.597 8.865 3.561 7.982 2.466c-.106-.129-.232-.303-.297-.364a.202.202 0 0 0-.11-.052 1.795 1.795 0 0 0-.225-.025 9.555 9.555 0 0 0-5.901 1.46 6.904 6.904 0 0 1 1.304-.948 8.498 8.498 0 0 1 4.3-1.085l.317.018c.097.005.193.016.289.033.11.02.214.061.307.123a.955.955 0 0 1 .212.205l.255.334c.168.217.342.43.517.639.35.419.707.825 1.06 1.227.354.403.7.802 1.034 1.206.165.203.327.404.485.612.177.215.297.469.352.74.115.979.146 1.966.092 2.95-.013.473-.02.936-.008 1.394l.005.231.002.116c-.003.017.007.043-.005.052l-.059.009c-.078.01-.156.025-.233.03l-.21.006a9.106 9.106 0 0 1-.694-.04 36.06 36.06 0 0 1-2.616-.38c-.84-.147-1.65-.308-2.433-.478-.786-.165-1.53-.379-2.257-.563l-2.214-.587-.182-1.852a67.251 67.251 0 0 1-.231-3.504c.396-.396.497-.492.563-.554Z"/><path fill="#fff" d="m.862 4.026-.005-.044c1.538-1.713 4.16-2.365 6.454-2.219a.628.628 0 0 1 .522.285c1.292 1.165 3.716 3.322 3.883 3.794.078.221.05.61-.505.718C9.928 6.637 3.555 4.803.862 4.026Z"/><path fill="#006489" d="M.863 4.02c.22-.032 3.713.973 5.082 1.274 1.206.268 2.497.578 3.8.822.326.06.654.117.973.151.078.007.16.02.236.023l.214.003c.017 0 .007 0 .017-.002l.046-.012a.623.623 0 0 0 .08-.03.29.29 0 0 0 .107-.076.227.227 0 0 0 .037-.213 1.273 1.273 0 0 0-.212-.29c-.203-.23-.43-.457-.655-.675-.79-.762-1.61-1.498-2.405-2.221l-.297-.27-.148-.136-.074-.067a.68.68 0 0 1-.095-.1.38.38 0 0 0-.172-.134.22.22 0 0 0-.042-.009.2.2 0 0 0-.024 0l-.066-.002-.192-.014c-.5-.026-1-.015-1.498.03a9.016 9.016 0 0 0-2.682.67c-.733.308-1.4.748-1.969 1.297l.022-.067.003.045-.012-.044-.02.06A5.045 5.045 0 0 1 2.773 2.34a6.38 6.38 0 0 1 2.122-.736c.455-.06.914-.089 1.373-.088.225-.005.45.009.67.018l.33.025.04.003h.03a.725.725 0 0 1 .316.082.928.928 0 0 1 .297.257c.01.015.022.028.035.04l.057.054.113.107.451.43.883.833c.58.547 1.14 1.076 1.666 1.614.13.135.258.27.381.413.062.071.123.142.179.222a.713.713 0 0 1 .137.285.602.602 0 0 1-.202.595.797.797 0 0 1-.274.147c-.05.017-.102.03-.154.041l-.147-.002a12.996 12.996 0 0 1-2.046-.317 70.488 70.488 0 0 1-5.204-1.332c-.978-.284-2.639-.887-2.963-1.01Z"/><path fill="#00F4CB" d="M11.833 8.336c.007.394.05 1.064.08 1.469-3.59-.63-7.132-1.5-10.602-2.604-.054-.453-.11-1.18-.168-1.72.14.066 6.998 2.246 10.69 2.855Z"/><path fill="#006489" d="M11.832 8.34a19.08 19.08 0 0 1-2.166-.398c-1.1-.244-2.336-.567-3.025-.74a91.12 91.12 0 0 1-2.733-.74L2.501 6.05l-1.2-.37a5039.541 5039.541 0 0 0 .145 1.408c-.07-.012.204.064.355.113 2.169.659 4.336 1.245 6.326 1.714.996.235 1.947.442 2.833.622l.65.13.218.044-.005-.21-.034-1.162c.05.326.1.727.15 1.16l.02.182.011.115c-.004.03.03.105-.027.079l-.408-.055c-.23-.03-.462-.06-.69-.095a27.332 27.332 0 0 1-2.212-.407A115.403 115.403 0 0 1 1.65 7.368l-.26-.081-.09-.028-.045-.014L1.25 7.2l-.015-.157-.052-.527-.112-1.121.358.12.267.085.528.164 1.03.31 1.961.566c1.263.355 2.437.67 3.534.954l1.784.45c.602.15 1.126.256 1.298.296Z"/><path fill="#fff" d="M7.85 4.9c.614-.216 1.137-.694 1.185-1.26a1.558 1.558 0 0 0-.612-1.235 2.12 2.12 0 0 0-1.342-.567c-.067-.082-.316-.572-.392-.646C6.066.586 5.447.384 4.555.233c-.209-.035-.406.058-.378.242a1.372 1.372 0 0 1-.399 1.176c-.486.485-1.34.713-1.243 1.557.061.368.268.697.575.914a4.807 4.807 0 0 0 2.226.86"/><path fill="#006489" d="M5.336 4.985a3.809 3.809 0 0 1-1.323-.273 3.87 3.87 0 0 1-.938-.498c-.25-.175-.45-.41-.58-.683a1.102 1.102 0 0 1 .01-.972c.178-.28.417-.518.7-.695a1.99 1.99 0 0 0 .606-.589c.136-.232.187-.502.145-.767a.416.416 0 0 1 .25-.451A.62.62 0 0 1 4.449 0a.92.92 0 0 1 .193.017c.197.032.393.067.587.115.314.073.616.186.9.338.269.15.516.334.733.55.058.065.108.137.149.214l.1.177.11.198c.006 0-.013 0 .016.002a1.877 1.877 0 0 1 .326.062 2.44 2.44 0 0 1 1.517 1.263c.113.236.154.5.119.758-.04.238-.144.46-.303.644-.27.304-.626.523-1.022.628.205-.131.394-.286.562-.46.18-.184.309-.41.376-.656a1.288 1.288 0 0 0-.332-1.046 2.079 2.079 0 0 0-.961-.731A1.677 1.677 0 0 0 7.232 2c-.031-.006-.144-.016-.218-.025a.707.707 0 0 1-.134-.193l-.145-.274a2.06 2.06 0 0 0-.136-.233 2.872 2.872 0 0 0-1.235-.76A5.478 5.478 0 0 0 4.677.35c-.233-.063-.43-.026-.402.135A1.495 1.495 0 0 1 3.77 1.81c-.349.308-.748.503-.96.806a.889.889 0 0 0 .002.974c.193.287.453.523.759.69.314.187.646.344.991.468.352.128.67.209.775.237Z"/><path fill="#CCFFEF" d="M6.253 4.608c1.192-.217 1.95-1.17 1.552-2.135 1.829.844.186 2.597-1.584 2.16"/><path fill="#CCFFEF" d="M6.22 4.63c.037-.023.314.039.639.023.296-.02.585-.098.852-.227a1.49 1.49 0 0 0 .715-.758.732.732 0 0 0-.341-.854c-.037-.03-.037-.028-.037-.028h-.002v.002c0 .004 0-.006.003.008l.002.015.006.094c.01.157-.007.313-.05.464-.083.281-.243.534-.462.732a2.2 2.2 0 0 1-1.286.55c.223-.112.439-.239.646-.378.165-.12.322-.252.47-.393.201-.167.346-.391.414-.642a1.13 1.13 0 0 0 .038-.367 2.835 2.835 0 0 0-.134-.526c.004-.01.036.011.063.027l.08.045.153.089.15.086.108.087a.88.88 0 0 1 .182.174c.057.06.104.13.14.205a.898.898 0 0 1-.07.9c-.154.238-.37.43-.624.559a2.139 2.139 0 0 1-.358.153c-.119.034-.24.06-.362.077a5.125 5.125 0 0 1-.267.016c-.096-.006-.196-.02-.287-.03a3.466 3.466 0 0 1-.38-.103Z"/><path fill="#CCFFEF" d="M3.83 3.61c1.307.409 2.937-.068 3.352-1.067.984 1.28-2.136 2.183-3.226 1.23"/><path fill="#CCFFEF" d="M3.958 3.771c.204.122.425.215.656.275.33.071.67.08 1.003.029a3.173 3.173 0 0 0 1.178-.423c.17-.1.307-.248.394-.424a.457.457 0 0 0 .034-.25.467.467 0 0 0-.03-.122c-.004-.008-.004-.005-.006-.007 0-.002-.003 0-.003.004 0 .005.008-.01-.007.013l-.088.125a2.013 2.013 0 0 1-.441.394c-.31.204-.659.345-1.025.414-.604.122-1.23.07-1.805-.15.233.005.554.016.85-.007.297-.018.566-.071.71-.083a2.324 2.324 0 0 0 1.48-.641.856.856 0 0 0 .122-.146l.029-.04a.546.546 0 0 0 .039-.06l.064-.112.061-.11c.01-.035.023.013.035.023l.036.053c.047.07.089.144.126.22a.718.718 0 0 1-.108.745c-.15.184-.34.332-.557.434a2.911 2.911 0 0 1-.615.227c-.385.1-.785.125-1.18.073a1.886 1.886 0 0 1-.595-.188 1.355 1.355 0 0 1-.357-.266Z"/><path fill="#006489" d="M4.8 4.16a1.01 1.01 0 0 1 .43-.016c.196.003.392-.02.584-.064.46-.101.878-.341 1.194-.687a1.31 1.31 0 0 0 .244-.466c.036-.16.035-.326-.003-.485a1.982 1.982 0 0 0-.474-.8.942.942 0 0 1 .54.158c.086.047.16.113.218.191a.55.55 0 0 1 .107.185c.095.373.045.766-.14 1.104a1.943 1.943 0 0 1-.639.673 2.307 2.307 0 0 1-1.448.394A1.863 1.863 0 0 1 4.8 4.16Z"/><path fill="#fff" d="M1.811 8.8c.672.143 1.335.305 1.991.485-.063-.411-.125-.776-.188-1.188-.648-.159-1.276-.41-1.907-.577.043.413.07.867.104 1.28Z"/><path fill="#F2DDC8" d="M1.81 8.8c-.05-.182-.081-.37-.091-.558l-.05-.436-.028-.258a.554.554 0 0 1-.008-.121l.104.023c.256.058.39.09.562.136l.506.144.504.144.271.069.11.026a.347.347 0 0 1 .054.016l.01.06.03.187.074.43.074.47.03.207.016.103c-.002.012.015.044-.003.04l-.05-.013-.398-.1-.39-.108c-.511-.143-.97-.287-1.335-.419.423-.028.848.009 1.259.11l.336.113.165.053.041.013.014.006.029.012c.068.044.04-.028.042-.074l-.038-.311-.083-.584c-.006-.012.004-.036-.016-.038l-.05-.012-.13-.035-.274-.077-.998-.3-.207-.06-.057-.016c-.014-.001-.041-.019-.031.008l.02.33c.015.267-.008.73-.015.82Z"/><path fill="#fff" d="M3.456 6c-.036-.252-.072-.628-.107-.88A.188.188 0 0 0 3.3 5a.318.318 0 0 0-.123-.057l-1.81-.536c.04.36.104.716.19 1.068.005.001 1.088.306 1.9.525Z"/><path fill="#F2DDC8" d="M3.456 6.002c-.062.033-.923-.207-1.263-.272l-.462-.097-.118-.027-.102-.026c-.016-.005-.038-.006-.05-.016l-.016-.051-.045-.16-.03-.122a7.403 7.403 0 0 1-.099-.485c-.01-.05-.036-.23-.056-.38l-.016-.115-.004-.03-.002-.015.014.004.055.015.221.063.554.158.461.14.439.143.207.07c.086.021.167.06.239.112.052.056.082.13.082.207l.009.142.014.266c.007.17.011.326.012.467a2.873 2.873 0 0 1-.198-.493 4.173 4.173 0 0 1-.075-.267L3.2 5.12c-.007-.022-.006-.006-.008-.01.011.006-.03-.013-.055-.022-.415-.17-.81-.312-1.183-.435L1.472 4.5c-.011-.001-.032-.014-.035-.006l.005.042.012.081.04.247c.03.167.063.328.103.48l.021.072.075.019.224.057c.294.075.567.149.818.229.245.081.486.175.72.281Z"/><path fill="#fff" d="M1.627 5.843c.045.385.053.688.086 1.072.624.178 1.255.354 1.894.526-.053-.384-.13-.645-.184-1.03-.801-.224-1.399-.452-1.796-.568Z"/><path fill="#EBFFF5" d="M1.629 5.84c.063-.038.894.25 1.223.322l.448.104.154.039c.092-.004.081.082.095.148.02.108.033.162.051.246l.104.467c.025.121.05.288.072.432.025.058-.036.021-.067.018l-.107-.027-.218-.058-.413-.11-.384-.107c-.25-.072-.495-.146-.728-.22l-.25-.077c-.017 0-.017-.015-.017-.03l-.002-.04-.004-.079-.004-.107-.006-.33c0-.212 0-.409.008-.584.087.187.154.382.2.583.027.106.048.21.062.3l.01.066c0 .002.002.002.002.002l-.002.003c-.023 0 .054.026.1.044l.15.056.295.106c.194.067.383.13.567.186l.495.148c.023.003.061.025.071.012l-.013-.08-.042-.212-.101-.478-.017-.091c.003-.026-.021-.026-.04-.03l-.207-.056a9.208 9.208 0 0 1-.795-.256c-.23-.084-.613-.275-.69-.31Z"/><path fill="#fff" d="M5.125 5.669a.133.133 0 0 0-.02-.096.244.244 0 0 0-.125-.063l-.835-.242.053.144c.046.28.066.501.099.782.246.064.501.13.763.196.016-.26.05-.46.065-.721Z"/><path fill="#F2DDC8" d="M5.127 5.669a.747.747 0 0 1 .017.294l-.019.519-.03-.005-.352-.06-.282-.051-.18-.04-.067-.015c-.023-.004-.05-.006-.045-.035l-.02-.133-.046-.29-.034-.233-.008-.058-.003-.03-.004-.06a.742.742 0 0 0-.044-.13c-.017-.043-.02-.07-.031-.107l-.027-.102-.013-.05c-.003-.015-.016-.04.012-.026l.221.068c.141.044.306.095.346.112.137.05.267.1.386.15.062.024.121.052.18.083.039.02.07.055.086.096a.18.18 0 0 1 0 .105c-.05-.155-.198-.074-.334-.09a.907.907 0 0 1-.318-.05l-.147-.07a.175.175 0 0 0-.046-.035c-.073-.05-.04.003-.043.05-.002.01.004.08.007.123l.013.143.033.273.015.106c-.006.034.034.027.055.035l.236.051.344.076.007-.063.016-.113c.027-.149.067-.296.119-.438Z"/><path fill="#fff" d="M4.407 9.413a.152.152 0 0 0 .028.114.25.25 0 0 0 .107.056l.37.125c.024-.405.013-.824.037-1.229-.195-.047-.388-.097-.582-.145.01.355.05.724.04 1.079Z"/><path fill="#F2DDC8" d="M4.406 9.412c-.04-.03-.054-.54-.099-.737l-.024-.133-.023-.231a.59.59 0 0 1-.005-.119l.116.023.239.05.307.065c.082.026.215.013.176.132l-.002.212c0 .186-.005.37-.014.546l-.046.66-.306-.121c-.054-.022-.07-.03-.097-.042l-.073-.036-.072-.036a.292.292 0 0 1-.086-.06.19.19 0 0 1-.034-.173c.025.05.062.104.119.106.042 0 .108-.005.171 0l.092.006c.023 0 .016-.007.021-.01a.016.016 0 0 0 0-.015l.003.004c.006.006.011.007.016.004.005-.007.01.004.016-.039l.028-.182c.017-.12.03-.236.04-.349a9.24 9.24 0 0 0 .019-.329l.002-.05c0-.015.007-.037-.016-.036l-.114-.026-.146-.034-.105-.02c-.021 0-.054-.017-.06-.003l.008.068.009.098.008.124a1.807 1.807 0 0 1-.068.684Z"/><path fill="#fff" d="M4.25 6.647c.064.339.11.68.136 1.024l.584.125c.021-.38.058-.535.08-.915-.16-.045-.553-.177-.8-.234Z"/><path fill="#EBFFF5" d="M4.25 6.646c.241.024.479.068.712.131l.096.02.05.01c.015.006.044.002.036.024v.195c0 .087 0 .176-.005.264l-.034.684-.059-.011c-.36-.073-.416-.083-.588-.122l-.214-.048c-.007-.07-.008-.143-.012-.212l-.009-.21a6.7 6.7 0 0 1-.017-.717c.155.17.257.38.291.606l-.012.275c-.003.035-.009.036-.012.06.017.01.034.018.052.024l.234.066.154.039.043-.649c.006-.124.014-.138-.046-.146a3.773 3.773 0 0 1-.27-.087 2.471 2.471 0 0 1-.39-.196Z"/><path fill="#C08D41" d="M11.105 10.03c-.443-.068-.883-.14-1.322-.215-.036.27-.068.418-.123.686a3.148 3.148 0 0 0-.857-.072 7.26 7.26 0 0 0 2.158.227.223.223 0 0 0 .145-.04.09.09 0 0 0 .017-.065c-.003-.214-.016-.305-.018-.521Z"/><path fill="#C08D41" d="M11.108 10.03c.024.063.037.13.037.197l.017.183.007.109c.01.045 0 .093-.026.132-.047.055-.154.058-.205.06l-.171.011-.283.014a5.885 5.885 0 0 1-1.718-.169l-.954-.236.985-.046.15-.007a2.956 2.956 0 0 1 .57.04c.031.005.015.003.02.004l.002-.002.026-.13.062-.304.025-.133.013-.064.007-.03.03.005.255.047.26.054c.339.074.643.149.896.222a3.286 3.286 0 0 1-1.128.01c-.04-.01-.093-.023-.08-.025-.003-.003-.014-.013-.02-.012a.078.078 0 0 0-.013.016c-.006.014-.02.07-.028.102l-.056.224-.065.291a3.207 3.207 0 0 0-.506-.097 2.719 2.719 0 0 0-.41-.01l.012-.114c.705.167 1.43.236 2.155.206a.142.142 0 0 0 .068-.012c.025-.1.038-.203.04-.305l.026-.23ZM11.181 7.124a.137.137 0 0 0-.025-.11.269.269 0 0 0-.157-.056l-1.081-.154.072.103a12.02 12.02 0 0 1-.07.834c.415.113.816.218 1.194.31.025-.333.041-.594.067-.927Z"/><path fill="#C08D41" d="M11.183 7.124c.026.129.031.261.017.392l-.01.303a1.53 1.53 0 0 1-.022.324l-.428-.08-.357-.072-.357-.081-.15-.036c-.053-.016-.135-.013-.105-.087l.018-.266.024-.347.015-.167.004-.041.004-.044.002-.021a.516.516 0 0 0-.038-.043 1.331 1.331 0 0 1-.202-.25l.377.058.198.03.102.02.378.075.34.08a.49.49 0 0 1 .176.07.17.17 0 0 1 .056.185.223.223 0 0 0-.06-.097.15.15 0 0 0-.103-.018c-.072.01-.165.023-.248.028a1.437 1.437 0 0 1-.405-.017l-.15-.041-.075-.02a.167.167 0 0 1-.05-.015.396.396 0 0 0-.082-.03l.009.017c.02.019 0 .037-.007.113l-.024.184-.038.354-.006.065c0 .016-.008.039 0 .048l.118.03.312.074.553.128.06.013c.012-.005.005-.035.01-.05l.022-.213c.027-.187.068-.373.122-.555Z"/><path fill="#00CCC0" d="M11.118 8.47a50.298 50.298 0 0 1-1.217-.22 7.657 7.657 0 0 1-.077.91c.44.075.881.259 1.323.329-.003-.38-.025-.64-.029-1.02Z"/><path fill="#00CCC0" d="M11.122 8.47a1.3 1.3 0 0 1 .056.39l.046.61.006.067.003.034v.017h-.016l-.129-.014-.236-.036a5.334 5.334 0 0 1-.361-.078l-.355-.087-.172-.038-.132-.025a1.156 1.156 0 0 1-.166-.035l.03-.432.026-.292.043-.431.003-.034c.005-.007.022.002.031.002l.07.014.137.027.179.038c.317.071.631.158.94.261a2.06 2.06 0 0 1-.89.035l-.117-.04a.322.322 0 0 1-.081-.028.224.224 0 0 0-.037-.02c-.006.005-.01.018-.014.028a.125.125 0 0 0-.007.021l-.009.057-.017.113-.03.22-.026.213c0 .038-.03.1.031.093l.176.04.192.048c.246.065.495.132.688.167l.073.01a.676.676 0 0 0 0-.069l-.002-.134.001-.148c.009-.19.03-.378.066-.565Z"/><path fill="#CCFFEF" d="M9.236 5.717a8.837 8.837 0 0 0 1.643.292 2.297 2.297 0 0 0-.436-.526l-.54-.536.07.436a.094.094 0 0 1-.01.08.13.13 0 0 1-.102.026l-1.45-.027c.342.07.68.16 1.01.27"/><path fill="#CCFFEF" d="M9.42 5.735a7.728 7.728 0 0 1-1.022-.212l-.464-.108.479-.015.271-.009c.312-.018.646-.027.984-.03h.126c.033 0 .067 0 .1-.003.002.026.012.05.028.07a.106.106 0 0 0-.043-.009c-.052-.005-.031.01-.038-.017L9.8 5.17c-.021-.25-.231-.875.112-.421l.691.679.117.12c.04.044.065.07.143.169.104.145.195.3.272.46a6.665 6.665 0 0 1-1.188-.184 5.562 5.562 0 0 1-.723-.233c.4-.02.802-.003 1.2.052l.117.027c.037.008.018.01.034.015.023.01.048.02.073.026.082.001-.298-.394-.473-.575l-.104-.107-.052-.053-.026-.026.003.03.024.14.012.068c.01.037.01.075 0 .111a.15.15 0 0 1-.15.085h-.73c-.263 0-.51 0-.742-.008l.018-.165.253.074c.251.081.498.175.739.282Z"/><path fill="#FF4500" d="M7.785.968c-.05-1.927-5.218.488-3.093 2.549a2.019 2.019 0 0 0 1.49.423 2.03 2.03 0 0 0 1.352-.75c.478-.436.314-2.115.25-2.222Z"/><path fill="#6D001A" d="M7.788.965c.116.286.166.595.145.902.008.25-.007.5-.046.748-.026.24-.122.469-.277.657l.016-.018-.1.137a2.055 2.055 0 0 1-.793.593c-.31.13-.647.184-.983.156a2.23 2.23 0 0 1-.998-.31 2.296 2.296 0 0 1-.226-.163l-.178-.19c-.055-.065-.104-.138-.154-.207-.05-.07-.085-.154-.126-.23a1.455 1.455 0 0 1-.095-.91c.068-.286.2-.554.389-.782.34-.412.773-.738 1.265-.954A2.827 2.827 0 0 1 7.039.112c.237.015.46.114.629.28a.782.782 0 0 1 .186.573.814.814 0 0 0-.318-.442.866.866 0 0 0-.55-.087 4.983 4.983 0 0 0-.925.259 2.827 2.827 0 0 0-1.599 1.152c-.156.259-.211.565-.155.861.073.28.226.533.44.73a1.887 1.887 0 0 0 1.51.373 1.786 1.786 0 0 0 1.165-.697l.004-.007.015-.015c.149-.199.24-.435.261-.682.082-.477.11-.961.086-1.445Z"/><path fill="#6D001A" d="M5.536 2.44c-.012.02-.04.024-.068.039-.026.015-.051.039-.05.059-.003.037.02.049.027.042.007-.006.02 0 .033 0 .018-.007 0 .002.024.007a.085.085 0 0 0 .049-.03.083.083 0 0 0 .019-.052.147.147 0 0 1 .179.041.124.124 0 0 1 .019.145.307.307 0 0 1-.284.107.324.324 0 0 1-.19-.105.196.196 0 0 1-.032-.207.19.19 0 0 1 .135-.114.137.137 0 0 1 .139.067ZM6.857 2.372c-.02.014-.047.006-.076.015-.028.008-.059.027-.061.046a.043.043 0 0 0 .004.038c.002.002.006.004 0 0 .024.003.012.002.019 0 .007-.001.02.004.036.005a.25.25 0 0 0 .064 0 .232.232 0 0 0 .123-.075.175.175 0 0 1 .13.128.118.118 0 0 1-.033.129.417.417 0 0 1-.298.04.343.343 0 0 1-.184-.122.192.192 0 0 1 .051-.28c.03-.018.066-.029.102-.03a.126.126 0 0 1 .093.042c.018.017.029.04.03.064Z"/><path fill="#fff" d="M4.828 2.684c-.05-1.327 2.873-.744 2.27-1.996-.8-.321-2.922.814-2.27 1.951"/><path fill="#FFB470" d="M4.826 2.64a.637.637 0 0 1-.105-.175.872.872 0 0 1-.045-.422 1.45 1.45 0 0 1 .436-.772c.267-.276.593-.49.954-.626a2.22 2.22 0 0 1 .588-.142c.105-.01.21-.009.315.004L7.17.56l.033.008c.008.007.01.02.015.029l.026.06.04.091a.595.595 0 0 1-.07.586c-.122.138-.278.24-.453.298a8.976 8.976 0 0 1-.878.245 2.267 2.267 0 0 0-.713.283.668.668 0 0 0-.298.522.6.6 0 0 1-.027-.335.743.743 0 0 1 .213-.36c.163-.156.363-.269.582-.33l.74-.158c.222-.037.432-.123.616-.25a.336.336 0 0 0 .123-.246.7.7 0 0 0-.06-.262.66.66 0 0 0-.116-.035 1.31 1.31 0 0 0-.438.014 2.701 2.701 0 0 0-.995.435c-.262.173-.48.403-.635.674a3.25 3.25 0 0 0-.085.212.888.888 0 0 0-.031.247.602.602 0 0 0 .03.22l.037.133Z"/><path fill="#6D001A" d="M6.525 1.243c-.025-.007-.035-.035-.062-.055a.093.093 0 0 0-.08-.026c-.074.03-.047.07-.04.07.013 0-.004-.003.006.017a.13.13 0 0 0 .125.003.14.14 0 0 1 .054.177c-.024.064-.082.1-.114.095a.308.308 0 0 1-.264-.182.273.273 0 0 1 .022-.236.223.223 0 0 1 .19-.108.21.21 0 0 1 .171.08c.05.049.015.162-.008.165Z"/></svg>